<?xml version="1.0" standalone="no"?>
<!DOCTYPE svg PUBLIC "-//W3C//DTD SVG 20010904//EN"
 "http://www.w3.org/TR/2001/REC-SVG-20010904/DTD/svg10.dtd">
<svg version="1.0" xmlns="http://www.w3.org/2000/svg"
 width="350.000000pt" height="350.000000pt" viewBox="0 0 350.000000 350.000000"
 preserveAspectRatio="xMidYMid meet">
<metadata>
Created by potrace 1.11, written by Peter Selinger 2001-2013
</metadata>
<g transform="translate(0.000000,350.000000) scale(0.100000,-0.100000)"
fill="#000000" stroke="none">
<path d="M1285 3383 c-146 -31 -289 -115 -424 -250 -112 -112 -162 -139 -451
-238 -107 -37 -206 -73 -220 -80 -51 -26 -97 -97 -81 -124 12 -19 137 -48 281
-66 30 -4 62 -9 70 -10 8 -1 56 -6 105 -10 251 -19 317 -43 406 -143 163 -186
218 -457 160 -793 -32 -185 -44 -376 -38 -575 4 -99 8 -187 11 -195 4 -12 12
-66 21 -149 2 -14 13 -65 24 -115 50 -217 93 -338 189 -537 l47 -98 1057 0
1058 0 0 788 0 788 -251 180 c-138 98 -260 186 -272 194 -59 39 -185 137 -206
160 -45 48 -100 137 -172 281 -129 257 -291 482 -488 680 -129 129 -221 198
-334 249 -144 64 -356 92 -492 63z m15 -367 c0 -3 -4 -8 -10 -11 -5 -3 -10 -1
-10 4 0 6 5 11 10 11 6 0 10 -2 10 -4z m61 -19 c-10 -9 -11 -8 -5 6 3 10 9 15
12 12 3 -3 0 -11 -7 -18z m-101 -77 c0 -5 -2 -10 -4 -10 -3 0 -8 5 -11 10 -3
6 -1 10 4 10 6 0 11 -4 11 -10z"/>
</g>
</svg>
